<?xml version="1.0" encoding="UTF-8" standalone="no"?>
<!-- Created with Inkscape (http://www.inkscape.org/) -->

<svg
   width="60mm"
   height="60mm"
   viewBox="0 0 73.378469 73.378469"
   version="1.1"
   id="svg5"
   xml:space="preserve"
   inkscape:version="1.2 (dc2aeda, 2022-05-15)"
   sodipodi:docname="icon.svg"
   inkscape:export-filename="icon.png"
   inkscape:export-xdpi="118.22546"
   inkscape:export-ydpi="118.22546"
   xmlns:inkscape="http://www.inkscape.org/namespaces/inkscape"
   xmlns:sodipodi="http://sodipodi.sourceforge.net/DTD/sodipodi-0.dtd"
   xmlns="http://www.w3.org/2000/svg"
   xmlns:svg="http://www.w3.org/2000/svg"><sodipodi:namedview
     id="namedview7"
     pagecolor="#ffffff"
     bordercolor="#000000"
     borderopacity="0.25"
     inkscape:showpageshadow="2"
     inkscape:pageopacity="0.0"
     inkscape:pagecheckerboard="false"
     inkscape:deskcolor="#d1d1d1"
     inkscape:document-units="mm"
     showgrid="false"
     inkscape:zoom="1.6819304"
     inkscape:cx="-21.1067"
     inkscape:cy="100.1825"
     inkscape:window-width="1671"
     inkscape:window-height="801"
     inkscape:window-x="55"
     inkscape:window-y="25"
     inkscape:window-maximized="0"
     inkscape:current-layer="layer1" /><defs
     id="defs2" /><g
     inkscape:label="图层 1"
     inkscape:groupmode="layer"
     id="layer1"
     transform="translate(-52.491558,-27.603246)"><path
       style="fill:#000000;stroke-width:0.277951"
       d="M 76.129581,68.635731 C 68.799774,64.589374 65.836293,63.104521 58.465999,57.940362 57.141543,56.789015 55.521489,54.504757 55.5998,52.260779 c 0.09783,-2.803354 1.632625,-5.142078 3.785909,-6.227901 11.529161,-4.006645 21.74086,-7.11933 32.059582,-10.659777 7.953643,-2.5245 20.497289,-6.558897 24.445329,-3.266511 -11.5756,12.218378 -19.565584,20.705415 -35.101957,36.816685 -1.019629,1.044 -4.197076,-0.07453 -4.659082,-0.287544 z"
       id="path2309"
       sodipodi:nodetypes="ccccccccc" /><path
       style="fill:#000000;stroke-width:0.277951"
       d="m 85.998955,78.108244 c 4.370922,7.141021 5.987153,10.034955 11.476563,17.166298 1.209576,1.271495 3.564162,2.787515 5.802382,2.608682 2.79617,-0.223429 5.06373,-1.861526 6.05192,-4.061323 3.48569,-11.697215 6.1374,-22.038205 9.21165,-32.505285 2.16537,-8.058828 5.63332,-20.770728 2.16722,-24.567182 -11.68709,12.111765 -19.80739,20.474214 -35.205873,36.717312 -0.997224,1.065428 0.262632,4.18951 0.496138,4.641498 z"
       id="path2309-4"
       sodipodi:nodetypes="ccccccccc" /></g></svg>
